<svg viewBox="0 0 2500 400" xmlns="http://www.w3.org/2000/svg">
	<title>
		Healthline
	</title>
	<path fill="currentColor" d="M328.8 388.8H209V199c0-20-14.3-32.7-31-32.7-16.4 0-36.1 13.3-36.1 32.7v189.8H34.6V86.5L0 61.9C39.6 48.6 105.9 20 142 0v158.6c14.3-18 49.4-41 93.9-41 56.4 0 80.6 37.4 80.6 82v160.2c0 4.8 4 14.5 12.3 29zm1233.1 0h-119.6V199c0-20-14.3-32.7-31-32.7-16.4 0-36.1 13.3-36.1 32.7v189.8h-107.4V86.5l-34.6-24.6c39.5-13.3 105.9-42 142-61.9v158.6c14.3-18 49.4-41 93.9-41 56.4 0 80.6 37.4 80.6 82v160.2c0 4.8 4 14.5 12.2 29zm-971.6-45.1v19C566.5 383 540.2 400 483.6 400c-89.2 0-143.8-59.9-143.8-133.6 0-88 56-148 138.4-148 81.3 0 112 55.8 112 126H441.7C448 325.3 493 362 534.2 362c19.9 0 42.2-6.6 56-18.4zM473 228.5c24 0 26.7-6.9 26.7-26.9 0-15.3-2.8-53.2-26.7-53.2-24 0-26.7 37.9-26.7 53.2 0 20 2.8 26.9 26.7 26.9zM2500 343.6v19c-23.8 20.4-50.1 37.3-106.6 37.3-89.3 0-143.9-59.9-143.9-133.6 0-88 56-148 138.4-148 81.3 0 112.1 55.9 112.1 126h-148.7c6.4 80.9 51.5 117.7 92.7 117.7 19.8 0 42.1-6.6 56-18.4zm-117.2-115.2c24 0 26.7-6.8 26.7-26.9 0-15.3-2.7-53.1-26.7-53.1s-26.6 37.8-26.6 53.1c0 20 2.7 26.9 26.6 26.9zm-1489 113l11.8 2.5c-5.4 22-21.2 56.1-72.2 56.1-42.5 0-54.4-26.1-63.3-53.8-7.5 25.6-36.6 53.8-92 53.8-49.4 0-76.6-22-76.6-63.5 0-46 45-79.8 157.2-113.1v-48.7c0-25-13.4-33.7-28.2-33.7a38.3 38.3 0 00-34.6 36.8c0 10.8 2 19 3.5 29.7 0 13.8-15.8 34.8-40 34.8-26.8 0-39.6-19.4-39.6-42 0-36.8 34-81.9 123.6-81.9 93 0 122.7 49.2 122.7 96.3v124.9c0 7.7 3 15.4 11.3 15.4 7.5 0 12.5-4.3 16.4-13.6zm-134.5-9.5v-92.7c-37.6 15.2-50.7 53-50.7 82 0 23.5 7.3 34.2 24.6 34.2 15.2 0 26-9.7 26-23.5zm288.2 57H924V86.4l-32.9-24.6c37.6-13.3 106.7-42 141-61.9v359.8c0 4.6 5.2 14.3 15.4 29zm676.8 0h-123.5V86.4L1568 61.9c37.6-13.3 106.7-42 141-61.9v359.8c0 4.6 5.2 14.3 15.4 29zm-491.6-31.4v19c-18 15.3-47.8 23.5-80 23.5-53 0-71.5-39.4-71.5-72.7v-178h-25.6l134.5-118v97.3h42.6v20.8h-42.6V342c0 15.4 9 22.6 19.9 22.6 6.6 0 18.5-3.1 22.7-7.2zM1827 114.2c-30.6 0-55-25.3-55-57A55.8 55.8 0 011827 0c30.5 0 54.9 25.3 54.9 57.1s-24.4 57.1-55 57.1zm72.3 274.6h-126.1V198.5l-34.7-24.7a1073 1073 0 00142.3-62v248c0 4.8 6.2 14.4 18.5 29zm342.1 0H2118V198.5c0-20-14.2-32.9-31-32.9-16.4 0-36.1 13.4-36.1 32.9v190.3h-107.4V198.5l-34.6-24.7c39.6-13.3 103-42 139.2-62V164a122.5 122.5 0 0196.7-47.2c56.4 0 80.6 37.4 80.6 82v160.9c0 4.7 5.4 14.4 16.1 29z" />
</svg>
