<svg xmlns="http://www.w3.org/2000/svg" width="51" height="51" viewBox="0 0 51 51">
  <g fill="none" fill-rule="evenodd" transform="translate(2 2)">
    <path stroke="#00ACB8" stroke-width="3.132" d="M23.5,47 C36.4782667,47 47,36.4782667 47,23.5 C47,10.5201667 36.4782667,0 23.5,0 C10.5217333,0 0,10.5201667 0,23.5 C0,36.4782667 10.5217333,47 23.5,47 Z"/>
    <path fill="#00ACB8" d="M20.8631433,17.80407 C20.8145767,14.1177033 22.4893433,10.8214367 25.1307433,8.66570333 C25.4017767,8.44480333 25.2466767,8.00457 24.89731,8.00457 L24.8863433,8.00457 C16.7725767,8.00457 10.19101,14.5736033 10.1737483,22.6858033 C10.15811,30.7870367 16.6237433,37.34197 24.72341,37.4281367 C30.9430767,37.4955033 36.28541,33.70417 38.50381,28.29917 C38.6369767,27.9733033 38.2891767,27.6615367 37.9789767,27.82917 C36.3339767,28.7253033 34.4492767,29.2329033 32.4470767,29.2329033 C26.0879767,29.2329033 20.9461767,24.16317 20.8631433,17.80407"/>
  </g>
</svg>
