<svg xmlns="http://www.w3.org/2000/svg" width="51" height="50" viewBox="0 0 51 50">
  <g fill="none" fill-rule="evenodd" transform="translate(2 2)">
    <path fill="#00ACB8" d="M23.5,35.9074467 C26.2322667,35.9074467 28.7436333,34.8111133 30.5343333,33.05698 C32.3281667,31.3028467 33.4483333,28.84798 33.4483333,26.17078 C33.4483333,22.31138 28.1608333,14.7244467 24.6640333,9.63684667 C23.9026333,8.36418 23.0958,8.40864667 22.3344,9.63684667 C18.8391667,14.7244467 13.5501,22.3558467 13.5501,26.17078 C13.5501,28.84798 14.6718333,31.3028467 16.4641,33.05698 C18.2563667,34.8111133 20.7661667,35.9074467 23.5,35.9074467"/>
    <path stroke="#00ACB8" stroke-width="2.848" d="M23.5,46 C36.4767,46 47,35.7021333 47,23 C47,10.2963333 36.4767,0 23.5,0 C10.5217333,0 0,10.2963333 0,23 C0,35.7021333 10.5217333,46 23.5,46 Z"/>
  </g>
</svg>
