<svg xmlns="http://www.w3.org/2000/svg" width="26" height="25" viewBox="0 0 26 25">
  <path fill="#13737B" d="M62.2330963,31.9951079 C62.1485446,31.9951079 62.0623668,31.9934806 61.9452952,31.9894124 C61.8664344,31.9869715 61.7843216,31.9820896 61.668063,31.9755804 L60.3737709,31.7860003 C60.2217403,31.7526407 60.0680838,31.7135855 59.9006063,31.6672076 L59.1404536,31.4206721 L58.9518381,31.3482573 L58.5737943,31.1936641 C58.653468,31.168441 58.7323288,31.1415906 58.8144416,31.1139266 C59.7575187,30.8128766 60.7070999,30.3759473 61.6387951,29.8145298 C63.7078739,29.6583093 65.5590693,30.344215 66.6997049,30.8934278 C65.669637,31.3905671 64.0436419,31.9951079 62.2330963,31.9951079 L62.2330963,31.9951079 Z M58.7989946,33.816867 C58.3876178,33.4051609 58.0827437,32.951145 57.8599824,32.5345569 C58.2648552,32.7168142 58.7477758,32.9055807 59.2884191,33.0658694 C59.336386,33.1114337 59.3794749,33.1537435 59.4209377,33.1952395 C60.011174,33.7843211 60.4095428,34.4913817 60.662385,35.060122 C60.0949127,34.8062637 59.3884178,34.4075759 58.7989946,33.816867 L58.7989946,33.816867 Z M56.4998375,29.508598 L56.4534966,29.4313014 L56.0404939,28.668099 L55.9372432,28.462246 C55.8705774,28.3271803 55.8071636,28.1896737 55.7453758,28.0554217 C55.6437511,27.8316683 55.5453784,27.6014058 55.4437537,27.3434792 L55.0535148,26.2393581 L54.9331912,25.8300929 C54.9055493,25.737337 54.8795334,25.6388855 54.8470135,25.5152109 L54.8161195,25.3972319 L54.7803477,25.2483342 L54.7673397,25.1962607 C54.7340068,25.0571268 54.7031129,24.9163656 54.667341,24.7398039 L54.6331951,24.5656831 C54.6039272,24.4119035 54.5779113,24.2573103 54.5527083,24.0978352 L54.5128715,23.8220083 L54.4787256,23.5624544 C54.4600266,23.3997247 54.4437667,23.2304858 54.4250677,23.0010369 L54.3901088,22.097887 L54.3957998,21.6365483 L54.4031168,21.4380181 L54.4047428,21.4095404 C54.5510823,18.3054712 55.7665137,15.5935806 56.4998375,14.2201418 C57.2339743,15.5935806 58.4494056,18.3062848 58.5957452,21.4144223 L58.5973712,21.4518501 L58.6055012,21.6983856 L58.6103792,21.9896718 L58.5819243,22.8383072 L58.4941205,23.7731894 L58.4469667,24.1067853 C58.4225767,24.2573103 58.3957478,24.4119035 58.3583499,24.6063655 L58.325017,24.7756044 C58.2973751,24.9082291 58.2681072,25.0408538 58.2372133,25.1718512 L58.1583525,25.4932424 L58.1420926,25.5583343 C58.1168896,25.6559721 58.0884347,25.7544236 58.0607928,25.8520614 L57.9315262,26.2710904 L57.5461654,27.3687023 C57.4542966,27.6014058 57.3567369,27.8316683 57.2551122,28.054608 C57.1933244,28.1896737 57.1290976,28.3271803 57.0502368,28.4882827 L56.8925153,28.8023511 L56.5364224,29.4467607 L56.4998375,29.508598 Z M54.2006804,33.816867 C53.6112572,34.4083895 52.9023233,34.8070773 52.334851,35.0609357 C52.6007012,34.460463 52.99907,33.7745573 53.5787373,33.1952395 C53.6202001,33.1529298 53.664102,33.1106201 53.7128819,33.0658694 C54.2527122,32.9055807 54.7348198,32.7168142 55.1396926,32.5345569 C54.9177442,32.951145 54.6136832,33.4043472 54.2006804,33.816867 L54.2006804,33.816867 Z M51.3039701,31.9780213 C51.2145404,31.9820896 51.1340536,31.9869715 51.0324289,31.990226 C50.9373082,31.9934806 50.8511304,31.9951079 50.7665787,31.9951079 C48.9568461,31.9951079 47.330851,31.3905671 46.2999701,30.8934278 C47.4414187,30.344215 49.2901751,29.6583093 51.3616929,29.8145298 C52.2909491,30.37432 53.2397173,30.8112493 54.1771035,31.110672 C54.2616552,31.1399633 54.344581,31.1668137 54.4258807,31.1936641 L53.0836217,31.6720895 C52.9324042,31.7135855 52.7779347,31.7526407 52.6137092,31.7892549 L51.3039701,31.9780213 Z M47.4536136,23.896864 C46.8511824,22.8903807 46.346311,21.7911415 45.9528201,20.6316924 C45.9048533,20.4884902 45.8585124,20.3452881 45.8146106,20.2012723 C48.3657969,20.9994615 50.5665813,22.2899081 52.2047714,23.9521921 C52.5112715,24.2678877 52.8039506,24.6047382 53.0624838,24.9358932 C53.0974427,24.9879667 53.1258976,25.0359719 53.1486616,25.0790953 C53.1706125,25.1197777 53.1909374,25.1653421 53.2112624,25.2182292 L53.2372783,25.2938985 C53.4990635,26.6461824 53.9153183,27.8992012 54.4714086,29.0114587 C54.5746593,29.2335848 54.678723,29.4402515 54.7835996,29.629018 C54.2397043,29.4532699 53.6380861,29.2205664 52.997444,28.939044 C52.2381043,28.5810386 51.677949,28.2409336 51.5267314,28.147364 C50.7901556,27.6730069 50.0934167,27.1091484 49.4560266,26.4696207 C48.7040039,25.7137412 48.0300289,24.8480191 47.4536136,23.896864 L47.4536136,23.896864 Z M59.9241832,24.9537934 C60.1997894,24.5998563 60.4932815,24.2630058 60.7932776,23.9538194 C62.4330937,22.2899081 64.6338781,20.9994615 67.1858774,20.2012723 C67.1411626,20.3452881 67.0948217,20.4884902 67.0476679,20.6300651 C66.652551,21.7943961 66.1468666,22.8936353 65.5468744,23.8952367 C64.9696461,24.8472055 64.2956711,25.7137412 63.5436484,26.4696207 C62.9062583,27.1091484 62.2103324,27.6730069 61.4770086,28.1441094 C61.324978,28.2393063 60.7672617,28.5785977 60.013613,28.9341621 C59.3607759,29.2213801 58.7550927,29.4548972 58.2168883,29.629018 C58.320952,29.4418788 58.4225767,29.2384667 58.5233884,29.0220362 C59.0843567,27.9008285 59.5014245,26.6478097 59.7599577,25.3069169 L59.7648357,25.2865757 L59.7989816,25.197888 C59.8152416,25.1547646 59.8331275,25.1140822 59.8485745,25.0823499 C59.8745904,25.0351583 59.9038583,24.9863394 59.9241832,24.9537934 L59.9241832,24.9537934 Z M68.9460172,30.6143464 C68.8907333,30.4752125 68.7964256,30.3564198 68.673663,30.272614 C68.5948022,30.2180995 66.7216558,28.9439259 64.1599005,28.4663142 C64.006244,28.4370229 63.8517744,28.4117998 63.6973049,28.3890176 C63.7176298,28.3703037 63.7387678,28.3515898 63.7599057,28.3336895 C64.0891697,28.0586763 64.4037998,27.769831 64.6948529,27.4761039 C66.8273455,25.3256308 68.4305767,22.2679396 68.988293,19.2737129 C69.0313819,19.0296184 68.9541471,18.7790146 68.7793527,18.6048938 C68.6053712,18.4307731 68.3126921,18.356731 68.1070037,18.3965998 C68.002127,18.416941 67.0419769,18.6057075 65.7102869,19.104474 L64.6119272,19.556049 C64.0972997,19.7871252 63.5940542,20.0417972 63.0794268,20.3314561 C61.9696851,20.96122 60.9729501,21.6918764 60.1111727,22.5079659 C60.1160506,22.3484908 60.1184896,22.1890157 60.1184896,22.0303542 C60.1184896,21.6886218 60.1071077,21.3379393 60.0794658,20.9604064 C60.0396289,20.4168892 59.9697111,19.8611672 59.8762164,19.345314 L59.8664604,19.2639492 C59.1583395,15.3096172 57.2038934,12.4284877 57.1209676,12.3072541 C56.8380445,11.8979889 56.1624435,11.8971752 55.8787074,12.3072541 C55.7957816,12.4284877 53.8421485,15.3096172 53.1283366,19.3078862 C53.0299639,19.8619808 52.9600461,20.4185164 52.9177702,20.9864431 C52.8933803,21.3371257 52.8811854,21.6886218 52.8811854,22.0303542 C52.8811854,22.1890157 52.8836243,22.3484908 52.8893153,22.5079659 C52.0267249,21.6918764 51.0275509,20.9595927 49.8836633,20.3119285 C49.4048078,20.0417972 48.9031883,19.7879388 48.3901868,19.5568626 L47.2788192,19.1004058 C45.9576981,18.6057075 44.998361,18.416941 44.8902323,18.3965998 C44.7121859,18.3624266 44.4016208,18.4242639 44.2203223,18.6048938 C44.0463409,18.7798283 43.9682931,19.030432 44.0170729,19.2997497 C44.5690983,22.2679396 46.1723295,25.3248172 48.3048221,27.4761039 C48.6015662,27.7747129 48.9170092,28.0643718 49.2576552,28.3499625 C49.2690372,28.3589126 49.2828582,28.3711173 49.3031831,28.3898312 C49.1479006,28.4117998 48.993431,28.4370229 48.8397745,28.4663142 C46.2788322,28.9439259 44.4048728,30.2180995 44.327638,30.2718003 C44.2056884,30.3547925 44.1113807,30.4719579 44.0544708,30.6127191 C44.0186989,30.7030341 44,30.7974173 44,30.8934278 C44,30.946315 44.006504,31.0008294 44.0186989,31.0594121 C44.0601618,31.244924 44.1699165,31.4076537 44.326825,31.5150553 C44.4447097,31.5972338 47.2568682,33.5036123 50.7665787,33.5036123 C50.996657,33.5036123 51.2283613,33.4962895 51.4584396,33.4792029 C50.68284,34.7550038 50.4389407,35.9575764 50.4112988,36.1081013 C50.3885348,36.2260804 50.3950388,36.3513822 50.4316237,36.4701749 C50.4673956,36.585713 50.5324354,36.692301 50.6186131,36.7793614 C50.7917816,36.9518549 51.0495019,37.0340334 51.2950271,36.9868418 C51.4169767,36.9624323 51.7494927,36.8916449 52.2072104,36.7346107 L53.1511005,36.3513822 C53.2494732,36.3050043 53.348659,36.2545581 53.4551616,36.2000436 L54.7128689,35.3815132 C54.8169325,35.2977074 54.9193702,35.210647 55.0226209,35.1178911 L55.5949712,34.5312505 C55.9128533,34.1626677 56.1965894,33.7509615 56.4413017,33.3034548 L56.4892685,33.2106989 C56.4925205,33.203376 56.4957725,33.1976805 56.4998375,33.1903577 C56.5030895,33.1960532 56.5055285,33.2017487 56.5087805,33.2074443 L56.5616253,33.3107776 C56.7949556,33.7346885 57.0664968,34.1268671 57.3689319,34.4832452 L57.3673059,34.4856861 L57.4006388,34.523114 C57.4030778,34.5255549 57.4047038,34.5279959 57.4063298,34.5304368 L57.4608006,34.5922741 L57.4599876,34.5939014 L57.4786866,34.613429 L57.984371,35.1244002 C58.0835567,35.2122743 58.1843684,35.2993347 58.2941231,35.3872087 L59.5550823,36.2057392 C59.652642,36.2553717 59.7510147,36.3058179 59.8477615,36.3513822 L60.7965296,36.7354244 C61.2501822,36.8916449 61.5826982,36.9624323 61.7127779,36.9884691 C61.7574927,36.9957919 61.8022076,37 61.8477355,37 C62.0477329,37 62.2371613,36.9225635 62.3835008,36.7777341 C62.4680526,36.6906737 62.5322794,36.5848994 62.5680513,36.4693613 C62.6030102,36.3538232 62.6111402,36.2301486 62.5883762,36.1081013 C62.5607343,35.9575764 62.317648,34.7550038 61.5412354,33.4792029 C61.7721267,33.4962895 62.003018,33.5036123 62.2330963,33.5036123 C65.7428068,33.5036123 68.5549653,31.5972338 68.674476,31.5150553 C68.8256935,31.409281 68.9338222,31.2538741 68.9777241,31.0756851 C68.991545,31.0162887 68.999675,30.9544515 68.999675,30.8934278 C68.999675,30.7982309 68.981789,30.7046613 68.9460172,30.6143464 L68.9460172,30.6143464 Z" transform="translate(-43.11 -12)"/>
</svg>
