<svg xmlns="http://www.w3.org/2000/svg" width="46" height="53" viewBox="0 0 46 53">
  <g fill="none" fill-rule="evenodd" transform="translate(-1 2)">
    <path fill="#02ADB9" stroke="#02ADB9" stroke-width=".783" d="M14.924382,0.0864046993 C15.0633339,0.139582652 15.1928544,0.216652608 15.3051917,0.313026542 C15.417529,0.409400476 15.5126829,0.525046658 15.5850335,0.653156026 C15.6574488,0.78127174 15.706996,0.921780837 15.730833,1.06642106 C15.7546053,1.21105494 15.7526673,1.35975014 15.7251483,1.50374309 C15.6975646,1.64773604 15.6443352,1.78695693 15.5686255,1.91321332 C15.4172706,2.16571341 15.1740562,2.3638108 14.8934392,2.46317996 C7.70546994,5.12368943 2.58395062,11.9415979 2.58395062,19.9512637 C2.58395062,25.3777311 4.93541028,30.2475116 8.68853395,33.6667651 C8.8429896,33.8074519 8.96159293,33.9858328 9.03064901,34.181284 C9.09970509,34.3767352 9.11908472,34.5889393 9.08659154,34.7933381 L9.08659154,47.4836658 L28.5571116,47.4836658 L28.5571116,43.0062223 C28.5803672,42.8315854 28.64109,42.6618348 28.7342415,42.5113755 C28.8273283,42.3608527 28.9527791,42.2297481 29.0999351,42.1291034 C29.2470265,42.0284587 29.4156938,41.9583374 29.5917255,41.9247681 C29.7676925,41.8911352 29.95083,41.8943081 30.1256343,41.9330176 L37.1805946,41.94096 L37.1805946,35.4771792 C37.2050776,35.3301466 37.2561752,35.1874291 37.3307868,35.0577206 C37.4053983,34.9280121 37.5035239,34.811376 37.619091,34.7148561 C37.7346582,34.6183997 37.8676671,34.5421864 38.0099782,34.4907853 C38.1523539,34.4393841 38.3039672,34.4128586 38.4556451,34.4128586 L41.2179915,34.4693999 L38.7519009,24.7116106 C38.7304542,24.6117909 38.7213457,24.5094328 38.7248341,24.4074555 L40.5138903,17.906527 C39.7545318,11.0425225 35.2089757,5.29755849 28.9749365,2.71781224 C28.8166049,2.65505211 28.6711285,2.56104516 28.5497474,2.44306372 C28.4283663,2.32508862 28.3311452,2.18320883 28.2655128,2.0283328 C28.1999451,1.87345678 28.1660307,1.70570508 28.1664183,1.53795974 C28.1670643,1.37021439 28.2014308,1.20260865 28.2677092,1.04801819 C28.3340521,0.893427723 28.4319192,0.7519731 28.5538171,0.634524706 C28.675715,0.517069965 28.821579,0.423716641 28.9802335,0.36162916 C29.1388881,0.299567063 29.3101394,0.268758118 29.480874,0.271664502 C29.6516085,0.274837411 29.8216971,0.311135488 29.9780261,0.378591531 C37.0911899,3.32212447 42.2621913,9.89055348 43.0933836,17.7252777 C43.0995205,17.7831516 43.1016522,17.8414379 43.0996497,17.899591 L41.3126606,24.3396187 L44.0742905,35.4771792 C44.1136958,35.6612079 44.1107888,35.8538669 44.0657635,36.0366899 C44.0208027,36.2195129 43.9337882,36.3921826 43.8131823,36.5381999 C43.6925118,36.6842806 43.5383792,36.8034551 43.3655775,36.8843008 C43.1927112,36.96521 43.0014342,37.0077269 42.8099635,37.0077269 L39.5533712,36.9511857 L39.5533712,43.683712 C39.5250124,43.8541606 39.4607366,44.0187077 39.3657764,44.1640904 C39.2708808,44.3094096 39.1453654,44.4354375 38.9995014,44.5318305 C38.853702,44.6282235 38.687554,44.6949815 38.5147523,44.7265836 C38.3419506,44.7583127 38.1624952,44.7545052 37.9911147,44.7164303 L31.1728682,44.7181336 C31.1728682,46.3490798 31.1728682,47.6213821 31.1728682,48.5350405 C31.1728682,49.5604603 30.1256343,50.2310284 29.3755001,50.2310284 L7.30669509,50.2310284 C7.15353142,50.1916844 7.0077966,50.1244822 6.87924506,50.0338004 C6.75069352,49.9430552 6.63932525,49.828894 6.55250451,49.6988047 C6.46574836,49.5687789 6.40353975,49.4228886 6.37014219,49.2709062 C6.33668003,49.1188604 6.33202892,48.9608496 6.35644725,48.8071539 L6.42957972,35.0552935 C2.46541188,31.2052224 0,25.8542385 0,19.951454 C0,10.8781785 5.80878559,3.11339783 13.9824028,0.0880546119 C14.1426723,0.0261194309 14.3156678,-0.00387090371 14.4878881,0 C14.6369821,0.00401694773 14.78543,0.0332077093 14.924382,0.0864046993 Z" transform="translate(2.009 -.2)"/>
    <g stroke="#00ACB8" transform="translate(12.53 9.397)">
      <path stroke-width="3.132" d="M16.1860403,8.43080333 L16.1860403,8.43080333 C16.1860403,5.66334476 15.0677803,3.01491667 13.0865494,1.08380381 L12.1390041,0.159751429 C11.9197374,-0.0532504762 11.5720432,-0.0532504762 11.3527765,0.159751429 L10.4052313,1.08380381 C8.42400031,3.01491667 7.30574031,5.66334476 7.30574031,8.43080333 C7.30574031,11.1982619 8.42400031,13.84669 10.4052313,15.7778029 L11.3527765,16.7018552 C11.5720432,16.9148571 11.9197374,16.9148571 12.1390041,16.7018552 L13.0865494,15.7778029 C15.0677803,13.84669 16.1860403,11.1982619 16.1860403,8.43080333 Z"/>
      <path stroke-width="3.132" d="M3.00482464,13.8574967 L3.00482464,13.8574967 C4.96099654,15.8136686 7.62352035,16.8959062 10.3909789,16.86145 L11.7144099,16.844222 C12.019817,16.8395234 12.2657089,16.5936315 12.2704075,16.2882243 L12.2876356,14.9647934 C12.3220918,12.1973348 11.2398542,9.53324481 9.28368226,7.5770729 C7.32751035,5.620901 4.66342035,4.53866338 1.89752797,4.57311957 L0.572530829,4.59034767 C0.268689877,4.59504624 0.0212317818,4.84093814 0.0180994008,5.14634529 L0.000871305605,6.46977624 C-0.0351510753,9.23723481 1.04708654,11.9013248 3.00482464,13.8574967 Z"/>
      <path stroke-width="3.132" d="M20.486956,13.8574967 L20.486956,13.8574967 C18.5307841,15.8136686 15.8682603,16.8959062 13.1008017,16.86145 L11.7773707,16.844222 C11.4719636,16.8395234 11.2260717,16.5936315 11.2213731,16.2882243 L11.204145,14.9647934 C11.1696888,12.1973348 12.2519264,9.53324481 14.2080984,7.5770729 C16.1642703,5.620901 18.8283603,4.53866338 21.5942526,4.57311957 L22.9192498,4.59034767 C23.2230907,4.59504624 23.4705488,4.84093814 23.4736812,5.14634529 L23.4909093,6.46977624 C23.5269317,9.23723481 22.4446941,11.9013248 20.486956,13.8574967 Z"/>
    </g>
    <path stroke="#01ADB9" stroke-width="3.132" d="M16.6205082,1.04999 C21.9132837,-0.254403987 26.9882354,-0.111397337 31.8453632,1.47900995"/>
  </g>
</svg>
