<svg viewBox="-1 -1 32 32" xmlns="http://www.w3.org/2000/svg">
	<title>
		Telephone Icon
	</title>
	<g fill="none">
		<circle stroke="currentColor" stroke-width="2" cx="15" cy="15" r="15" />
		<path d="M16.1 18.05c.73.16 1.53-.24 1.77-.96.32-1.04 1.67-1.36 2.47-.56l2.24 2.24c.56.56.56 1.52 0 2.15l-1.52 1.52c-1.6 1.6-5.83-.16-9.59-3.91-3.75-3.76-5.43-8-3.91-9.6l1.52-1.51c.55-.56 1.51-.56 2.15 0l2.24 2.24c.8.8.48 2.15-.56 2.47-.72.24-1.2 1.04-.96 1.76.4 1.68 2.56 3.76 4.16 4.16z" fill="currentColor" />
	</g>
</svg>
