<svg xmlns="http://www.w3.org/2000/svg" xmlns:xlink="http://www.w3.org/1999/xlink" width="51" height="50" viewBox="0 0 51 50">
  <defs>
    <polygon id="icon-gummies-a" points="0 0 28.2 0 28.2 18.884 0 18.884"/>
  </defs>
  <g fill="none" fill-rule="evenodd" transform="translate(2 2)">
    <path stroke="#00ACB8" stroke-width="2.848" d="M23.9296544,46 C36.9079211,46 47.4296544,35.7021333 47.4296544,23 C47.4296544,10.2963333 36.9079211,0 23.9296544,0 C10.9513877,0 0.429654404,10.2963333 0.429654404,23 C0.429654404,35.7021333 10.9513877,46 23.9296544,46 Z" transform="translate(-.43)"/>
    <g transform="translate(9.4 13.8)">
      <mask id="icon-gummies-b" fill="#fff">
        <use xlink:href="#icon-gummies-a"/>
      </mask>
      <path fill="#00ACB8" d="M27.32392,4.36083727 C27.32392,3.47555452 24.97768,2.69410122 21.41884,2.23688729 L21.41884,1.35706924 C21.41884,0.608404198 20.7928,0 20.02012,0 C19.24744,0 18.6214,0.608404198 18.6214,1.35706924 L18.6214,1.96729501 C17.62876,1.89443223 16.58536,1.84524986 15.49872,1.82339102 L15.49872,1.70681058 C15.49872,0.958145533 14.8708,0.351562905 14.1,0.351562905 C13.32732,0.351562905 12.70128,0.958145533 12.70128,1.70681058 L12.70128,1.82339102 C11.61276,1.84524986 10.56936,1.89443223 9.57672,1.96729501 L9.57672,1.35706924 C9.57672,0.608404198 8.95068,0 8.178,0 C7.40532,0 6.77928,0.608404198 6.77928,1.35706924 L6.77928,2.23688729 C3.22232,2.69410122 0.8742,3.47555452 0.8742,4.36083727 L0,16.3321917 C0,17.7420865 6.31116,18.8842105 14.1,18.8842105 C21.88508,18.8842105 28.2,17.7420865 28.2,16.3321917 L27.32392,4.36083727 Z" mask="url(#icon-gummies-b)"/>
    </g>
  </g>
</svg>
