<svg xmlns="http://www.w3.org/2000/svg" width="25" height="25" viewBox="0 0 25 25">
  <path fill="#13737B" d="M52.4582216,20.598374 C52.4921512,23.2544715 53.5407384,25.7390244 55.4100996,27.595935 C57.2794608,29.4520325 59.7627868,30.4731707 62.4036431,30.4731707 C63.5952195,30.4731707 64.7908351,30.2544715 65.9040502,29.8349593 C65.0760056,31.3219512 63.9102804,32.600813 62.49493,33.5626016 C60.6635377,34.8073171 58.5211238,35.4788618 56.3011564,35.4284553 C53.409867,35.397561 50.7043827,34.2463415 48.6839539,32.1861789 C46.6643329,30.1268293 45.5551571,27.3894309 45.5607905,24.4772358 C45.5680827,21.5617886 46.6998783,18.8227642 48.7493896,16.7642276 C50.4806087,15.0260163 52.7167331,13.9373984 55.1192742,13.6479675 C53.3848237,15.5243902 52.424292,18.0130081 52.4582216,20.598374 M67.6417321,28.0276423 C67.2975887,27.7170732 66.8144954,27.6593496 66.4073398,27.8813008 C65.1882966,28.5495935 63.8036444,28.903252 62.4036431,28.903252 C60.1764051,28.903252 58.0816543,28.0414634 56.5071577,26.4780488 C54.9318534,24.9138211 54.0480672,22.8178862 54.0189847,20.5780488 C53.9850551,17.9878049 55.1103879,15.5609756 57.1081969,13.9203252 C57.4652659,13.6268293 57.5961374,13.1552846 57.4418383,12.7186992 C57.2867314,12.2821138 56.88927,12 56.4215258,12 C53.1093474,12 49.9926683,13.296748 47.6482923,15.6520325 C45.3031084,18.0073171 44.0073196,21.1406504 44.0000244,24.4739837 C43.9935862,27.802439 45.262716,30.9341463 47.5739702,33.2894309 C49.8844166,35.6471545 52.978476,36.9642276 56.281768,36.999187 L56.4215258,37 C58.9113146,37 61.3130478,36.2617886 63.3682141,34.8642276 C65.4104549,33.4764228 66.9833357,31.5317073 67.9188241,29.2422764 C68.0917037,28.8130081 67.983452,28.3357724 67.6417321,28.0276423" transform="translate(-43.61 -12)"/>
</svg>
