<svg xmlns="http://www.w3.org/2000/svg" width="49" height="50" viewBox="0 0 49 50">
  <g fill="none" fill-rule="evenodd" transform="translate(1 1)">
    <ellipse cx="23.5" cy="24.212" stroke="#02ADB9" stroke-width="3.132" rx="22.118" ry="22.788"/>
    <ellipse cx="23.5" cy="24.212" stroke="#02ADB9" stroke-width="3.132" rx="22.118" ry="22.788"/>
    <ellipse cx="15.897" cy="29.909" fill="#02ADB9" rx="5.529" ry="5.697"/>
    <path fill="#02ADB9" d="M24.9090337,8.60043307 L29.3198596,17.6894077 C29.6975096,18.4675955 29.3728095,19.4045872 28.5946217,19.7822372 C28.3815076,19.8856602 28.1477097,19.9393939 27.9108259,19.9393939 L19.0891741,19.9393939 C18.224191,19.9393939 17.5229836,19.2381866 17.5229836,18.3732035 C17.5229836,18.1363197 17.5767174,17.9025218 17.6801404,17.6894077 L22.0909663,8.60043307 C22.4686163,7.82224525 23.4056079,7.49754517 24.1837958,7.87519514 C24.5000886,8.02869021 24.7555386,8.2841402 24.9090337,8.60043307 Z"/>
    <rect width="11.059" height="11.394" x="24.882" y="24.212" fill="#02ADB9" rx="1.566"/>
  </g>
</svg>
