<svg xmlns="http://www.w3.org/2000/svg" width="24" height="25" viewBox="0 0 24 25">
  <path fill="#13737B" d="M47.3703209,30.0414634 C46.8771613,29.6406504 46.5948814,29.0617886 46.5948814,28.4536585 C46.5948814,28.1918699 46.6488467,27.9308943 46.7509656,27.6869919 C47.3454139,28.0723577 48.0303577,28.2821138 48.7161318,28.2821138 C49.1561564,28.2821138 49.5139877,27.9317073 49.5139877,27.500813 C49.5139877,27.0699187 49.1561564,26.7195122 48.7161318,26.7195122 C47.586182,26.7195122 46.5948814,25.6821138 46.5948814,24.5 C46.5948814,23.7894309 46.9659965,23.1349593 47.586182,22.7495935 C47.946504,22.5268293 48.0643974,22.0674797 47.8535177,21.704878 C47.6642241,21.3780488 47.5679168,21.0357724 47.5679168,20.6886179 C47.5679168,19.5065041 48.5592174,18.4691057 49.6891672,18.4691057 C50.8191171,18.4691057 51.8104176,19.5065041 51.8104176,20.6886179 C51.8104176,21.1195122 52.1674187,21.4699187 52.6082735,21.4699187 C53.048298,21.4699187 53.4061293,21.1195122 53.4061293,20.6886179 C53.4069595,18.5894309 51.6045194,16.8276423 49.5430459,16.9097561 C49.6875068,16.1707317 50.352525,15.6105691 51.1487204,15.6105691 C51.5845937,15.6105691 51.99556,15.7772358 52.3044075,16.0796748 C52.4555102,16.2268293 52.6555969,16.3081301 52.8689673,16.3081301 C53.0823377,16.3081301 53.2824243,16.2268293 53.4335271,16.0788618 C53.7432047,15.7739837 53.7432047,15.2788618 53.4326968,14.9739837 C53.0665632,14.6162602 52.6306898,14.3552846 52.150814,14.203252 C52.553478,13.795935 53.0649027,13.5617886 53.5804786,13.5617886 C54.7112587,13.5617886 55.7017291,14.599187 55.7017291,15.7821138 L55.7017291,19.0520325 C55.4883587,18.9878049 55.2658557,18.9544715 55.0400318,18.9544715 C54.6000072,18.9544715 54.2421759,19.304878 54.2421759,19.7357724 C54.2421759,20.1666667 54.6000072,20.5170732 55.0400318,20.5170732 C55.4053352,20.5170732 55.7017291,20.8081301 55.7017291,21.1650407 L55.7017291,29.5162602 C54.9636501,28.9430894 54.0462405,28.6252033 53.0947912,28.6252033 C52.6539364,28.6252033 52.2969353,28.9747967 52.2969353,29.4065041 C52.2969353,29.8373984 52.6539364,30.1878049 53.0947912,30.1878049 C54.531928,30.1878049 55.7017291,31.3333333 55.7017291,32.7406504 C55.7017291,34.202439 54.5078511,35.4373984 53.0947912,35.4373984 C52.0893766,35.4373984 51.1620041,34.8544715 50.7352633,33.9520325 C50.603256,33.6739837 50.3201458,33.5 50.0112984,33.5 C49.98141,33.5 49.949861,33.501626 49.9199726,33.5056911 L49.8112118,33.5186992 C49.2632567,33.5861789 48.6397502,33.3317073 48.1839512,32.8373984 C47.6609032,32.2707317 47.4599863,31.5373984 47.6343356,30.8260163 C47.7057358,30.5382114 47.6019565,30.2308943 47.3703209,30.0414634 M65.3648341,30.8252033 C65.4104971,31.0089431 65.4312529,31.1634146 65.4312529,31.3113821 C65.4312529,31.9601626 65.1323683,32.5878049 64.611811,33.0333333 C64.1759376,33.4056911 63.6562105,33.5788618 63.1896185,33.5186992 L63.0775367,33.504878 C62.7437823,33.4699187 62.4091976,33.6471545 62.2639064,33.9520325 C61.8371656,34.8544715 60.9106234,35.4373984 59.9052088,35.4373984 C58.4921489,35.4373984 57.2974407,34.202439 57.2974407,32.7406504 C57.2974407,31.3333333 58.4672418,30.1878049 59.9052088,30.1878049 C60.3452334,30.1878049 60.7030647,29.8373984 60.7030647,29.4065041 C60.7030647,28.9747967 60.3452334,28.6252033 59.9052088,28.6252033 C58.9529293,28.6252033 58.0355196,28.9430894 57.2974407,29.5162602 L57.2974407,21.1650407 C57.2974407,20.8081301 57.5938346,20.5170732 57.959138,20.5170732 C58.3991625,20.5170732 58.7569938,20.1666667 58.7569938,19.7357724 C58.7569938,19.304878 58.3991625,18.9544715 57.959138,18.9544715 C57.7333141,18.9544715 57.5108111,18.9878049 57.2974407,19.0520325 L57.2974407,15.7821138 C57.2974407,14.599187 58.2879111,13.5617886 59.4186911,13.5617886 C59.934267,13.5617886 60.4456918,13.795935 60.8483558,14.203252 C60.3684799,14.3552846 59.9326066,14.6170732 59.5673032,14.9739837 C59.4170306,15.1211382 59.3331769,15.3170732 59.3331769,15.5260163 C59.3323467,15.7341463 59.4153702,15.9308943 59.5656427,16.0788618 C59.7167455,16.2268293 59.9168321,16.3081301 60.1302025,16.3081301 C60.3435729,16.3081301 60.5436595,16.2268293 60.6939321,16.0796748 C61.0036097,15.7772358 61.414576,15.6105691 61.8504494,15.6105691 C62.6383424,15.6105691 63.2967188,16.1577236 63.4503122,16.9089431 C61.3979713,16.8357724 59.5938707,18.5910569 59.5938707,20.6886179 C59.5938707,21.1195122 59.9508717,21.4699187 60.3917265,21.4699187 C60.8317511,21.4699187 61.1895824,21.1195122 61.1895824,20.6886179 C61.1895824,19.5065041 62.1800527,18.4691057 63.3100025,18.4691057 C64.4407826,18.4691057 65.4312529,19.5065041 65.4312529,20.6886179 C65.4312529,21.0357724 65.3357759,21.3780488 65.1456521,21.704878 C64.9347724,22.0666667 65.0526658,22.5260163 65.4121575,22.7495935 C66.0331733,23.1349593 66.4042883,23.7894309 66.4042883,24.5 C66.4042883,25.6821138 65.4129878,26.7195122 64.2830379,26.7195122 C63.8430134,26.7195122 63.4851821,27.0699187 63.4851821,27.500813 C63.4851821,27.9317073 63.8430134,28.2821138 64.2830379,28.2821138 C64.968812,28.2821138 65.6537559,28.0723577 66.2482042,27.6869919 C66.3503231,27.9308943 66.4042883,28.1918699 66.4042883,28.4536585 C66.4042883,29.0617886 66.1220084,29.6406504 65.6305093,30.0406504 C65.3980435,30.2300813 65.2934339,30.5382114 65.3648341,30.8252033 M67.4329495,26.5365854 C67.794932,25.9325203 68,25.201626 68,24.5 C68,23.4894309 67.5740894,22.5365854 66.8243873,21.8512195 C66.9588853,21.4747967 67.0269646,21.0845528 67.0269646,20.6886179 C67.0269646,19.3235772 66.2681298,18.0455285 65.0767426,17.3747967 C65.1572754,15.9170732 64.1966935,14.5878049 62.7562358,14.1756098 C62.1186153,12.8682927 60.7952207,12 59.4186911,12 C58.2879111,12 57.2077753,12.5528455 56.4995849,13.4699187 C55.7922247,12.5528455 54.7112587,12 53.5804786,12 C52.203949,12 50.8805545,12.8682927 50.242934,14.1756098 C48.8024763,14.5886179 47.8418944,15.9178862 47.9232574,17.3747967 C46.73104,18.0463415 45.9722052,19.3243902 45.9722052,20.6886179 C45.9722052,21.0829268 46.0402844,21.4731707 46.1756127,21.8512195 C45.4250803,22.5365854 45,23.4894309 45,24.5 C45,25.201626 45.205068,25.9325203 45.5670505,26.5365854 C45.1951052,27.1154472 45,27.7739837 45,28.4536585 C45,29.3723577 45.3528499,30.2414634 45.9979425,30.9178862 C45.872577,31.9349593 46.20135,32.9747967 46.9103707,33.7943089 C47.5836913,34.5715447 48.5201964,35.0373984 49.5554994,35.0878049 C50.3251272,36.2715447 51.6651265,37 53.0947912,37 C54.4414323,37 55.70505,36.3235772 56.4995849,35.2056911 C57.2941198,36.3235772 58.5585677,37 59.9052088,37 C61.3323828,37 62.6723821,36.2731707 63.4411797,35.0918699 C65.3980435,35.0186992 67.0269646,33.3170732 67.0269646,31.3113821 C67.0269646,31.1837398 67.0186622,31.0528455 67.0020575,30.9170732 C67.6463199,30.2414634 68,29.3723577 68,28.4536585 C68,27.7739837 67.8040645,27.1146341 67.4329495,26.5365854" transform="translate(-44.11 -12)"/>
</svg>
