<svg xmlns="http://www.w3.org/2000/svg" width="51" height="50" viewBox="0 0 51 50">
  <g fill="none" fill-rule="evenodd" transform="translate(2 2)">
    <path stroke="#00ACB8" stroke-width="2.848" d="M23.9296544,46 C36.9079211,46 47.4296544,35.7021333 47.4296544,23 C47.4296544,10.2963333 36.9079211,0 23.9296544,0 C10.9513877,0 0.429654404,10.2963333 0.429654404,23 C0.429654404,35.7021333 10.9513877,46 23.9296544,46 Z" transform="translate(-.43)"/>
    <g transform="translate(15.667 6.133)">
      <rect width="12.533" height="7.871" x="1.567" y="6.133" fill="#01ADB9" rx="2.05"/>
      <path fill="#01ADB9" d="M5.12571429 12.2666667L10.5409524 12.2666667C13.3718062 12.2666667 15.6666667 14.5615271 15.6666667 17.392381L15.6666667 30.5556825C15.6666667 32.2541948 14.2897504 33.6311111 12.5912381 33.6311111L3.07542857 33.6311111C1.37691627 33.6311111 1.09618618e-15 32.2541948 0 30.5556825L0 17.392381C-3.46679608e-16 14.5615271 2.29486045 12.2666667 5.12571429 12.2666667zM7.83333333 6.1284311e-15C9.56382555 5.81054483e-15 10.9666667 1.40284112 10.9666667 3.13333333L10.9666667 8.99555556 10.9666667 8.99555556 4.7 8.99555556 4.7 3.13333333C4.7 1.40284112 6.10284112 6.44631736e-15 7.83333333 6.1284311e-15z"/>
      <rect width="15.667" height="7.871" y="18.4" fill="#FFF"/>
    </g>
  </g>
</svg>
