<svg viewBox="0 0 30 30" xmlns="http://www.w3.org/2000/svg">
	<title>
		Dollar Symbol
	</title>
	<g transform="translate(1 1)" fill="none">
		<circle stroke="currentColor" stroke-width="2" cx="14" cy="14" r="14" />
		<path fill="currentColor" d="M13.89 5.05c.4 0 .74.33.74.74v-.06 1.74a6.3 6.3 0 013.76 1.7l-1.24 1.62c-.7-.71-1.6-1.14-2.52-1.33v3.23c1.95.5 4.06 1.24 4.06 3.74 0 1.9-1.26 3.58-4.06 3.82v1.66c0 .38-.28.7-.64.75h-.1a.75.75 0 01-.75-.76v-1.65a6.59 6.59 0 01-4.35-1.94l1.23-1.7c.7.77 1.78 1.48 3.12 1.68v-3.62c-1.92-.48-3.94-1.17-3.94-3.6 0-1.9 1.53-3.42 3.94-3.62V5.73a.75.75 0 01.75-.68zm.74 10.01v3.25c1.3-.18 1.82-.95 1.82-1.68 0-.84-.79-1.25-1.82-1.57zm-1.49-5.69c-1.04.13-1.7.71-1.7 1.53 0 .73.71 1.1 1.7 1.4z" />
	</g>
</svg>
