<svg xmlns="http://www.w3.org/2000/svg" width="47" height="45" viewBox="0 0 47 45">
  <g fill="none" fill-rule="evenodd" transform="translate(1.424 1.033)">
    <path stroke="#02ADB9" stroke-width="2.848" d="M1.86217255,6.93317874 L22.7878788,13.7047204 L22.7878788,13.7047204 L22.7878788,40.6157598 C22.7878788,41.4021081 22.1504176,42.0395694 21.3640693,42.0395694 C21.2152315,42.0395694 21.0673142,42.0162321 20.9257062,41.9704079 L0.985446497,35.5177559 C0.397980813,35.3276525 -1.46427723e-16,34.7805665 0,34.1631078 L0,8.28782682 C-5.40389101e-16,7.50147853 0.637461237,6.86401729 1.42380952,6.86401729 C1.57264726,6.86401729 1.7205646,6.88735452 1.86217255,6.93317874 Z"/>
    <path stroke="#02ADB9" stroke-width="2.848" d="M24.6762518,6.98239558 L44.1515152,13.7047204 L44.1515152,13.7047204 L44.1515152,40.5753031 C44.1515152,41.3616514 43.5140539,41.9991127 42.7277056,41.9991127 C42.5695988,41.9991127 42.4125962,41.9727785 42.2631422,41.9211911 L23.7471248,35.5299716 C23.1730688,35.3318232 22.7878788,34.7913752 22.7878788,34.1840836 L22.7878788,8.32828352 C22.7878788,7.54193523 23.42534,6.90447399 24.2116883,6.90447399 C24.3697951,6.90447399 24.5267978,6.93080817 24.6762518,6.98239558 Z" transform="matrix(-1 0 0 1 66.94 0)"/>
    <path fill="#02ADB9" d="M26.9818527,40.3647503 C27.0335321,40.5380598 27.0606061,40.717106 27.0606061,40.9002782 C27.0606061,42.4399811 25.1476409,43.688157 22.7878788,43.688157 C20.4281167,43.688157 18.5151515,42.4399811 18.5151515,40.9002782 C18.5151515,40.717106 18.5422255,40.5380598 18.5939049,40.3647503 C19.7711171,40.7020014 21.220352,40.9002782 22.7878788,40.9002782 C24.3226834,40.9002782 25.7440833,40.7101931 26.9068536,40.3868769 Z"/>
    <path stroke="#02ADB9" stroke-width="2.848" d="M1.13946348,6.89278527 L19.8386931,1.23832734 C20.8826645,0.922640959 21.9953277,0.913356776 23.0444215,1.2115784 L43.029959,6.89278527 L43.029959,6.89278527" transform="matrix(-1 0 0 1 44.17 0)"/>
    <rect width="2.848" height="9.758" x="32.758" y="9.118" fill="#02ADB9" rx="1.424"/>
    <path fill="#02ADB9" d="M23.7214208,-5.31929092 C24.4954048,-5.31459522 25.1216607,-4.68827216 25.1262734,-3.91428766 L25.2536622,17.4607365 C25.2582038,18.2227986 24.6441122,18.8442537 23.8820501,18.8487954 C23.8765185,18.8488284 23.8709869,18.8488281 23.8654553,18.8487945 C23.0914713,18.8440988 22.4652154,18.2177758 22.4606027,17.4437913 L22.333214,-3.9312329 C22.3286723,-4.693295 22.9427639,-5.31475014 23.7048261,-5.31929181 C23.7103576,-5.31932477 23.7158893,-5.31932448 23.7214208,-5.31929092 Z" transform="rotate(-73 23.793 6.765)"/>
    <rect width="2.848" height="9.758" x="32.758" y="28.634" fill="#02ADB9" rx="1.424"/>
  </g>
</svg>
