<svg viewBox="0 0 32 32" xmlns="http://www.w3.org/2000/svg">
	<title>
		Human Icon
	</title>
	<g fill="none">
		<path fill="currentColor" d="M17.86 9.71c-.43.4-.94.61-1.52.61-.6 0-1.1-.2-1.54-.6a2.14 2.14 0 01-.62-1.55c0-.6.2-1.1.62-1.52A2.1 2.1 0 0116.34 6c.58 0 1.09.22 1.52.65.4.42.6.92.6 1.52s-.2 1.1-.6 1.54zm1.04 1.18c.23 0 .45.08.68.25l4.15 4.18c.18.18.27.4.27.63 0 .27-.09.48-.27.65a.92.92 0 01-1.29 0l-3.03-3.05v-.02h-.04c-.04-.03-.1-.05-.17-.05-.2 0-.3.09-.3.26l.02.04h-.02v11.15c0 .3-.1.56-.29.77-.21.2-.46.3-.75.3-.3 0-.55-.1-.76-.3-.2-.2-.29-.46-.29-.77v-5.6h-.02c0-.21-.1-.31-.3-.31-.2 0-.3.1-.3.3v5.61c0 .3-.1.55-.3.77a1 1 0 01-.75.3 1 1 0 01-.74-.3 1 1 0 01-.32-.77V13.76c0-.19-.1-.28-.28-.28a.58.58 0 00-.23.07l-3.02 3.07v-.02a.8.8 0 01-.64.27.85.85 0 01-.63-.27.82.82 0 01-.28-.65c0-.24.1-.45.28-.63l4.14-4.16c.2-.17.42-.25.66-.25h4.78l.04-.02z" />
		<circle stroke="currentColor" stroke-width="2" cx="16" cy="16" r="15" />
	</g>
</svg>
