<svg xmlns="http://www.w3.org/2000/svg" width="51" height="51" viewBox="0 0 51 51">
  <g fill="none" fill-rule="evenodd" transform="translate(2 2)">
    <path stroke="#00ACB8" stroke-width="3.132" d="M23.5,47 C36.4782667,47 47,36.4782667 47,23.5 C47,10.5201667 36.4782667,0 23.5,0 C10.5233,0 0,10.5201667 0,23.5 C0,36.4782667 10.5233,47 23.5,47 Z"/>
    <path fill="#01ADB9" d="M39.4312767,19.0508233 C39.41091,18.7578567 39.1868767,18.5228567 38.8954767,18.4915233 C37.6797433,18.3630567 36.43581,18.2878567 35.20911,18.3348567 C32.6914767,18.4351233 30.24591,19.05709 28.2546767,20.79609 C27.8974767,21.1094233 27.5919767,21.4415567 27.3052767,21.7799567 C28.12151,23.9200233 28.3267433,26.11649 28.18731,28.30669 L32.4799767,24.19889 C32.7682433,23.9200233 33.2241433,23.93099 33.5014433,24.22239 C33.7771767,24.50909 33.7677767,24.9665567 33.4779433,25.24229 L27.9460433,30.5360567 C27.84421,31.2128567 27.70791,31.8818233 27.57161,32.55079 C30.6720433,32.62599 33.8476767,32.25939 36.2274433,30.0707567 C37.5152433,28.8863567 38.3847433,27.29619 38.87981,25.61829 C39.50961,23.4954567 39.58481,21.2457233 39.4312767,19.0508233"/>
    <path fill="#01ADB9" d="M16.1730133,23.2322567 C15.9505467,22.9001233 16.03828,22.4520567 16.3688467,22.2280233 C16.70098,22.0071233 17.1490467,22.09329 17.37308,22.4238567 L25.71088,34.81149 C27.0472467,29.3156233 28.0060467,23.7868567 24.3776467,18.88789 C22.1843133,15.9237567 19.03688,14.3508233 15.6356467,13.4656567 C13.97968,13.0332567 12.2626133,12.7653567 10.56748,12.58049 C10.1601467,12.5366233 9.78414667,12.7904233 9.66978,13.1836567 C8.80968,16.1305567 8.24254667,19.2153233 8.46658,22.29539 C8.64361333,24.7284233 9.35331333,27.15519 10.7570467,29.1495567 C13.8935133,33.61299 19.4050467,34.80679 24.47478,35.5603567 L16.1730133,23.2322567 Z"/>
  </g>
</svg>
